M48
;DRILL file {KiCad (5.0.2)-1} date 2019-10-01 11:12:12 AM
;FORMAT={-:-/ absolute / inch / decimal}
FMAT,2
INCH,TZ
T1C0.0157
T2C0.0276
T3C0.0315
T4C0.0390
T5C0.0394
T6C0.0430
T7C0.0512
T8C0.0591
%
G90
G05
T1
X-0.3197Y-1.8177
X-0.2752Y0.278
X0.4165Y-0.8402
X0.4657Y0.2803
X1.0787Y-0.1972
X1.1701Y-1.2118
X1.2283Y0.5004
X1.5752Y-2.5209
X1.9272Y-0.5815
X1.9563Y0.1
X2.1181Y-1.9457
X2.5102Y-1.4252
X2.6587Y-0.7598
X2.7217Y0.0488
X2.863Y-1.8594
X2.9917Y-2.0815
X3.3913Y0.0866
X3.4059Y-0.8866
X3.7846Y-2.0047
X3.9894Y-0.4969
X4.0276Y-0.9776
X4.0453Y0.4008
X4.0457Y-0.3051
X4.0559Y-0.8697
X4.0642Y-1.4535
X4.2399Y-1.3277
X4.2425Y-1.5602
X4.2748Y-3.0307
X4.3575Y-1.8339
X4.405Y-1.1625
X4.4067Y0.1244
X4.4898Y0.0559
X4.4929Y0.1362
X4.5232Y-1.15
X4.5488Y-0.9272
X4.5827Y0.0575
X4.585Y-0.4681
X4.6677Y-0.4811
X4.6768Y-0.3445
X4.7012Y-1.2098
X4.7039Y-0.7807
X4.7075Y-0.3949
X4.7126Y-0.5583
X4.7161Y-0.8283
X4.7343Y-1.6094
X4.7378Y0.0201
X4.7768Y0.1882
X4.8473Y0.2074
T2
X2.8465Y-0.1875
X3.1535Y-0.1875
X3.5965Y-1.7812
X3.9035Y-1.7812
X1.3465Y-1.6875
X1.6535Y-1.6875
X1.3465Y-0.1875
X1.6535Y-0.1875
X0.375Y-1.3465
X0.375Y-1.6535
X4.1858Y-1.4035
X4.4929Y-1.4035
X1.125Y-1.3465
X1.125Y-1.6535
X2.8465Y-0.9375
X3.1535Y-0.9375
X3.5965Y-1.0312
X3.9035Y-1.0312
X2.8465Y-1.6875
X3.1535Y-1.6875
X3.6307Y-2.629
X3.7102Y-2.3324
X3.5965Y-0.2812
X3.9035Y-0.2812
X0.5965Y-0.375
X0.9035Y-0.375
X2.0965Y-0.8438
X2.4035Y-0.8438
X2.0625Y-2.0965
X2.0625Y-2.4035
X-0.1535Y-0.375
X0.1535Y-0.375
X-0.1535Y-1.125
X0.1535Y-1.125
X0.5965Y-1.125
X0.9035Y-1.125
X4.3465Y-0.6562
X4.6535Y-0.6562
X2.0965Y-0.0938
X2.4035Y-0.0938
X2.0965Y-1.5938
X2.4035Y-1.5938
X3.7846Y-2.594
X3.9382Y-2.3281
X2.8125Y-2.0965
X2.8125Y-2.4035
X1.3465Y-0.9375
X1.6535Y-0.9375
T3
X4.252Y-1.7148
X4.252Y-2.0648
X4.1732Y-1.7148
X4.1732Y-2.0648
T4
X4.7685Y-1.1969
X4.7685Y-1.374
T6
X4.2Y0.0579
X4.2Y-0.0421
X4.2Y-0.1421
X4.2Y-0.2421
X4.2Y-0.3421
X4.2Y-0.4421
X4.2Y-0.5421
X4.2Y-0.6421
X4.2Y-0.7421
X4.2Y-0.8421
X4.2Y-0.9421
X4.2Y-1.0421
X4.8Y0.0579
X4.8Y-0.0421
X4.8Y-0.1421
X4.8Y-0.2421
X4.8Y-0.3421
X4.8Y-0.4421
X4.8Y-0.5421
X4.8Y-0.6421
X4.8Y-0.7421
X4.8Y-0.8421
X4.8Y-0.9421
X4.8Y-1.0421
T7
X4.6705Y-1.1476
X4.6705Y-1.4236
T5
X4.4091Y-1.6048G85X4.3894Y-1.6048
G05
X4.4091Y-1.7013G85X4.3894Y-1.7013
G05
X4.4681Y-1.5359G85X4.4484Y-1.5359
G05
X4.4681Y-1.7702G85X4.4484Y-1.7702
G05
X4.6256Y-1.5359G85X4.6059Y-1.5359
G05
X4.6256Y-1.7702G85X4.6059Y-1.7702
G05
X4.7437Y-1.5359G85X4.724Y-1.5359
G05
X4.7437Y-1.7702G85X4.724Y-1.7702
G05
T8
X2.8819Y-0.405G85X2.85Y-0.4625
G05
X2.9Y-0.3625G85X2.9016Y-0.3853
G05
X3.1Y-0.3625G85X3.0984Y-0.3853
G05
X3.1181Y-0.405G85X3.15Y-0.4625
G05
X0.6319Y-1.3425G85X0.6Y-1.4
G05
X0.65Y-1.3G85X0.6516Y-1.3228
G05
X0.85Y-1.3G85X0.8484Y-1.3228
G05
X0.8681Y-1.3425G85X0.9Y-1.4
G05
X2.1319Y0.4387G85X2.1Y0.3813
G05
X2.15Y0.4812G85X2.1516Y0.4584
G05
X2.35Y0.4812G85X2.3484Y0.4584
G05
X2.3681Y0.4387G85X2.4Y0.3813
G05
X-0.1181Y-1.3425G85X-0.15Y-1.4
G05
X-0.1Y-1.3G85X-0.0984Y-1.3228
G05
X0.1Y-1.3G85X0.0984Y-1.3228
G05
X0.1181Y-1.3425G85X0.15Y-1.4
G05
X3.6319Y-1.2488G85X3.6Y-1.3062
G05
X3.65Y-1.2063G85X3.6516Y-1.2291
G05
X3.85Y-1.2063G85X3.8484Y-1.2291
G05
X3.8681Y-1.2488G85X3.9Y-1.3062
G05
X4.3819Y-0.1238G85X4.35Y-0.1812
G05
X4.4Y-0.0813G85X4.4016Y-0.1041
G05
X4.6Y-0.0813G85X4.5984Y-0.1041
G05
X4.6181Y-0.1238G85X4.65Y-0.1812
G05
X0.6319Y0.1575G85X0.6Y0.1
G05
X0.65Y0.2G85X0.6516Y0.1772
G05
X0.85Y0.2G85X0.8484Y0.1772
G05
X0.8681Y0.1575G85X0.9Y0.1
G05
X2.1319Y-1.0613G85X2.1Y-1.1187
G05
X2.15Y-1.0188G85X2.1516Y-1.0416
G05
X2.35Y-1.0188G85X2.3484Y-1.0416
G05
X2.3681Y-1.0613G85X2.4Y-1.1187
G05
X1.3819Y-1.155G85X1.35Y-1.2125
G05
X1.4Y-1.1125G85X1.4016Y-1.1353
G05
X1.6Y-1.1125G85X1.5984Y-1.1353
G05
X1.6181Y-1.155G85X1.65Y-1.2125
G05
X4.3819Y-0.8738G85X4.35Y-0.9312
G05
X4.4Y-0.8313G85X4.4016Y-0.8541
G05
X4.6Y-0.8313G85X4.5984Y-0.8541
G05
X4.6181Y-0.8738G85X4.65Y-0.9312
G05
X1.3819Y0.345G85X1.35Y0.2875
G05
X1.4Y0.3875G85X1.4016Y0.3647
G05
X1.6Y0.3875G85X1.5984Y0.3647
G05
X1.6181Y0.345G85X1.65Y0.2875
G05
X3.239Y-2.1979G85X3.1933Y-2.2451
G05
X3.2675Y-2.1615G85X3.2631Y-2.1839
G05
X3.4607Y-2.2133G85X3.4533Y-2.2349
G05
X3.4672Y-2.259G85X3.4831Y-2.3228
G05
X3.6319Y-0.4988G85X3.6Y-0.5562
G05
X3.65Y-0.4563G85X3.6516Y-0.4791
G05
X3.85Y-0.4563G85X3.8484Y-0.4791
G05
X3.8681Y-0.4988G85X3.9Y-0.5562
G05
X-0.1181Y0.1575G85X-0.15Y0.1
G05
X-0.1Y0.2G85X-0.0984Y0.1772
G05
X0.1Y0.2G85X0.0984Y0.1772
G05
X0.1181Y0.1575G85X0.15Y0.1
G05
X4.1574Y-2.4539G85X4.101Y-2.4877
G05
X4.1943Y-2.4261G85X4.1843Y-2.4466
G05
X4.3675Y-2.5261G85X4.3548Y-2.5451
G05
X4.3619Y-2.572G85X4.3609Y-2.6377
G05
X0.6319Y-0.5925G85X0.6Y-0.65
G05
X0.65Y-0.55G85X0.6516Y-0.5728
G05
X0.85Y-0.55G85X0.8484Y-0.5728
G05
X0.8681Y-0.5925G85X0.9Y-0.65
G05
X2.8819Y0.345G85X2.85Y0.2875
G05
X2.9Y0.3875G85X2.9016Y0.3647
G05
X3.1Y0.3875G85X3.0984Y0.3647
G05
X3.1181Y0.345G85X3.15Y0.2875
G05
X-0.1181Y-0.5925G85X-0.15Y-0.65
G05
X-0.1Y-0.55G85X-0.0984Y-0.5728
G05
X0.1Y-0.55G85X0.0984Y-0.5728
G05
X0.1181Y-0.5925G85X0.15Y-0.65
G05
X2.3194Y-2.0925G85X2.2875Y-2.15
G05
X2.3375Y-2.05G85X2.3391Y-2.0728
G05
X2.5375Y-2.05G85X2.5359Y-2.0728
G05
X2.5556Y-2.0925G85X2.5875Y-2.15
G05
X1.3819Y-0.405G85X1.35Y-0.4625
G05
X1.4Y-0.3625G85X1.4016Y-0.3853
G05
X1.6Y-0.3625G85X1.5984Y-0.3853
G05
X1.6181Y-0.405G85X1.65Y-0.4625
G05
X3.6319Y0.2512G85X3.6Y0.1938
G05
X3.65Y0.2937G85X3.6516Y0.2709
G05
X3.85Y0.2937G85X3.8484Y0.2709
G05
X3.8681Y0.2512G85X3.9Y0.1938
G05
X1.5694Y-2.0925G85X1.5375Y-2.15
G05
X1.5875Y-2.05G85X1.5891Y-2.0728
G05
X1.7875Y-2.05G85X1.7859Y-2.0728
G05
X1.8056Y-2.0925G85X1.8375Y-2.15
G05
X2.8819Y-1.155G85X2.85Y-1.2125
G05
X2.9Y-1.1125G85X2.9016Y-1.1353
G05
X3.1Y-1.1125G85X3.0984Y-1.1353
G05
X3.1181Y-1.155G85X3.15Y-1.2125
G05
X2.1319Y-0.3113G85X2.1Y-0.3687
G05
X2.15Y-0.2688G85X2.1516Y-0.2916
G05
X2.35Y-0.2688G85X2.3484Y-0.2916
G05
X2.3681Y-0.3113G85X2.4Y-0.3687
G05
T0
M30
