G04 #@! TF.GenerationSoftware,KiCad,Pcbnew,(5.0.2)-1*
G04 #@! TF.CreationDate,2019-10-01T11:10:32-07:00*
G04 #@! TF.ProjectId,alexshatesu,616c6578-7368-4617-9465-73752e6b6963,rev?*
G04 #@! TF.SameCoordinates,Original*
G04 #@! TF.FileFunction,Profile,NP*
%FSLAX46Y46*%
G04 Gerber Fmt 4.6, Leading zero omitted, Abs format (unit mm)*
G04 Created by KiCad (PCBNEW (5.0.2)-1) date 2019-10-01 11:10:32 AM*
%MOMM*%
%LPD*%
G01*
G04 APERTURE LIST*
%ADD10C,0.150000*%
%ADD11C,0.200000*%
G04 APERTURE END LIST*
D10*
X119931250Y-52387500D02*
G75*
G03X119931250Y-52387500I-3250000J0D01*
G01*
X69925000Y-45243750D02*
G75*
G03X69925000Y-45243750I-3250000J0D01*
G01*
X88975000Y-4762500D02*
G75*
G03X88975000Y-4762500I-3250000J0D01*
G01*
X12775000Y-28575000D02*
G75*
G03X12775000Y-28575000I-3250000J0D01*
G01*
X12775000Y-9525000D02*
G75*
G03X12775000Y-9525000I-3250000J0D01*
G01*
D11*
X34337150Y-66694500D02*
G75*
G02X33337150Y-65694500I0J1000000D01*
G01*
X47625350Y15745000D02*
G75*
G02X48625350Y16745000I1000000J0D01*
G01*
X84725287Y14364500D02*
G75*
G02X85725287Y13364437I0J-1000000D01*
G01*
X71264301Y-66694500D02*
G75*
G02X71599970Y-66752520I0J-1000000D01*
G01*
X-8524600Y-47644500D02*
G75*
G02X-9524600Y-46644500I0J1000000D01*
G01*
X32337150Y-47644500D02*
G75*
G02X33337150Y-48644500I0J-1000000D01*
G01*
X103775200Y11983200D02*
G75*
G02X104775200Y10983200I0J-1000000D01*
G01*
X47625350Y15364500D02*
G75*
G02X46625350Y14364500I-1000000J0D01*
G01*
X105775200Y6483200D02*
G75*
G02X104775200Y7483200I0J1000000D01*
G01*
X65675350Y16745000D02*
G75*
G02X66675350Y15745000I0J-1000000D01*
G01*
X67675350Y14364500D02*
G75*
G02X66675350Y15364500I0J1000000D01*
G01*
X86725263Y11983200D02*
G75*
G02X85725263Y12983263I0J1000000D01*
G01*
X122825200Y6483200D02*
G75*
G02X123825200Y5483200I0J-1000000D01*
G01*
X123825200Y-55560589D02*
G75*
G02X123691212Y-56060612I-1000000J0D01*
G01*
X-9524600Y8505500D02*
G75*
G02X-8524600Y9505500I1000000J0D01*
G01*
X28575350Y10505500D02*
G75*
G02X27575350Y9505500I-1000000J0D01*
G01*
X110099142Y-79601306D02*
G75*
G02X108897461Y-80043263I-866012J500023D01*
G01*
X28575350Y13364500D02*
G75*
G02X29575350Y14364500I1000000J0D01*
G01*
X85725287Y13364437D02*
X85725263Y12983263D01*
X105775200Y6483200D02*
X122825200Y6483200D01*
X104775200Y10983200D02*
X104775200Y7483200D01*
X47625350Y15364500D02*
X47625350Y15745000D01*
X71264301Y-66694500D02*
X34337150Y-66694500D01*
X-9524600Y-46644500D02*
X-9524600Y8505500D01*
X29575350Y14364500D02*
X46625350Y14364500D01*
X86725263Y11983200D02*
X103775200Y11983200D01*
X67675350Y14364500D02*
X84725287Y14364500D01*
X48625350Y16745000D02*
X65675350Y16745000D01*
X32337150Y-47644500D02*
X-8524600Y-47644500D01*
X33337150Y-65694500D02*
X33337150Y-48644500D01*
X123825200Y-55560589D02*
X123825200Y5483200D01*
X110099142Y-79601307D02*
X123691212Y-56060612D01*
X-8524600Y9505500D02*
X27575350Y9505500D01*
X28575350Y10505500D02*
X28575350Y13364500D01*
X66675350Y15745000D02*
X66675350Y15364500D01*
X108897461Y-80043263D02*
X71599970Y-66752520D01*
M02*
