M48
;DRILL file {KiCad (5.0.2)-1} date 2019-10-01 11:12:12 AM
;FORMAT={-:-/ absolute / inch / decimal}
FMAT,2
INCH,TZ
T1C0.0472
T2C0.0670
T3C0.1570
%
G90
G05
T1
X4.5291Y-1.6186
X4.5291Y-1.6875
X4.8047Y-1.6186
X4.8047Y-1.6875
T2
X2.8Y0.1875
X3.2Y0.1875
X-0.2Y-0.75
X0.2Y-0.75
X2.2375Y-2.25
X2.6375Y-2.25
X1.3Y-0.5625
X1.7Y-0.5625
X3.55Y0.0938
X3.95Y0.0938
X1.4875Y-2.25
X1.8875Y-2.25
X2.8Y-1.3125
X3.2Y-1.3125
X2.05Y-0.4688
X2.45Y-0.4688
X2.8Y-0.5625
X3.2Y-0.5625
X0.55Y-1.5
X0.95Y-1.5
X2.05Y0.2812
X2.45Y0.2812
X-0.2Y-1.5
X0.2Y-1.5
X3.55Y-1.4062
X3.95Y-1.4062
X4.3Y-0.2812
X4.7Y-0.2812
X0.55Y0.
X0.95Y0.
X2.05Y-1.2188
X2.45Y-1.2188
X1.3Y-1.3125
X1.7Y-1.3125
X4.3Y-1.0312
X4.7Y-1.0312
X1.3Y0.1875
X1.7Y0.1875
X3.1192Y-2.3288
X3.5055Y-2.4323
X3.55Y-0.6562
X3.95Y-0.6562
X-0.2Y0.
X0.2Y0.
X4.0077Y-2.5493
X4.3541Y-2.7493
X0.55Y-0.75
X0.95Y-0.75
T3
X0.75Y0.
X2.25Y-1.2188
X1.5Y-1.3125
X4.5Y-1.0312
X1.5Y0.1875
X3.3123Y-2.3806
X3.75Y-0.6562
X0.Y0.
X4.1809Y-2.6493
X0.75Y-0.75
X3.Y0.1875
X0.Y-0.75
X2.4375Y-2.25
X1.5Y-0.5625
X3.75Y0.0938
X1.6875Y-2.25
X3.Y-1.3125
X2.25Y-0.4688
X3.Y-0.5625
X0.75Y-1.5
X2.25Y0.2812
X0.Y-1.5
X3.75Y-1.4062
X4.5Y-0.2812
T0
M30
