G04 #@! TF.GenerationSoftware,KiCad,Pcbnew,(5.0.2)-1*
G04 #@! TF.CreationDate,2019-10-01T11:10:32-07:00*
G04 #@! TF.ProjectId,alexshatesu,616c6578-7368-4617-9465-73752e6b6963,rev?*
G04 #@! TF.SameCoordinates,Original*
G04 #@! TF.FileFunction,Legend,Bot*
G04 #@! TF.FilePolarity,Positive*
%FSLAX46Y46*%
G04 Gerber Fmt 4.6, Leading zero omitted, Abs format (unit mm)*
G04 Created by KiCad (PCBNEW (5.0.2)-1) date 2019-10-01 11:10:32 AM*
%MOMM*%
%LPD*%
G01*
G04 APERTURE LIST*
%ADD10C,0.150000*%
%ADD11C,0.381000*%
%ADD12C,0.200000*%
%ADD13C,0.304800*%
G04 APERTURE END LIST*
D10*
X119854761Y-31336666D02*
X119902380Y-31479523D01*
X119902380Y-31717619D01*
X119854761Y-31812857D01*
X119807142Y-31860476D01*
X119711904Y-31908095D01*
X119616666Y-31908095D01*
X119521428Y-31860476D01*
X119473809Y-31812857D01*
X119426190Y-31717619D01*
X119378571Y-31527142D01*
X119330952Y-31431904D01*
X119283333Y-31384285D01*
X119188095Y-31336666D01*
X119092857Y-31336666D01*
X118997619Y-31384285D01*
X118950000Y-31431904D01*
X118902380Y-31527142D01*
X118902380Y-31765238D01*
X118950000Y-31908095D01*
X118902380Y-32241428D02*
X119902380Y-32479523D01*
X119188095Y-32670000D01*
X119902380Y-32860476D01*
X118902380Y-33098571D01*
X119902380Y-34003333D02*
X119902380Y-33431904D01*
X119902380Y-33717619D02*
X118902380Y-33717619D01*
X119045238Y-33622380D01*
X119140476Y-33527142D01*
X119188095Y-33431904D01*
X104136666Y-48452380D02*
X104470000Y-47976190D01*
X104708095Y-48452380D02*
X104708095Y-47452380D01*
X104327142Y-47452380D01*
X104231904Y-47500000D01*
X104184285Y-47547619D01*
X104136666Y-47642857D01*
X104136666Y-47785714D01*
X104184285Y-47880952D01*
X104231904Y-47928571D01*
X104327142Y-47976190D01*
X104708095Y-47976190D01*
X103184285Y-48452380D02*
X103755714Y-48452380D01*
X103470000Y-48452380D02*
X103470000Y-47452380D01*
X103565238Y-47595238D01*
X103660476Y-47690476D01*
X103755714Y-47738095D01*
X110216666Y-48452380D02*
X110550000Y-47976190D01*
X110788095Y-48452380D02*
X110788095Y-47452380D01*
X110407142Y-47452380D01*
X110311904Y-47500000D01*
X110264285Y-47547619D01*
X110216666Y-47642857D01*
X110216666Y-47785714D01*
X110264285Y-47880952D01*
X110311904Y-47928571D01*
X110407142Y-47976190D01*
X110788095Y-47976190D01*
X109835714Y-47547619D02*
X109788095Y-47500000D01*
X109692857Y-47452380D01*
X109454761Y-47452380D01*
X109359523Y-47500000D01*
X109311904Y-47547619D01*
X109264285Y-47642857D01*
X109264285Y-47738095D01*
X109311904Y-47880952D01*
X109883333Y-48452380D01*
X109264285Y-48452380D01*
D11*
G04 #@! TO.C,U1*
X107950000Y200000D02*
X105410000Y200000D01*
X107950000Y2740000D02*
X107950000Y200000D01*
X105410000Y2740000D02*
X105410000Y-27740000D01*
X105410000Y-27740000D02*
X123190000Y-27740000D01*
X123190000Y2740000D02*
X105410000Y2740000D01*
X123190000Y-27740000D02*
X123190000Y2740000D01*
D10*
G04 #@! TO.C,J1*
X111540000Y-38112500D02*
X123540000Y-38112500D01*
X111540000Y-44112500D02*
X111540000Y-38112500D01*
X123540000Y-44112500D02*
X111540000Y-44112500D01*
X123540000Y-38112500D02*
X123540000Y-44112500D01*
D12*
G04 #@! TO.C,D00*
X-2800000Y-8325000D02*
X3000000Y-8325000D01*
X-2800000Y-10725000D02*
X-2800000Y-8325000D01*
X3000000Y-10725000D02*
X-2800000Y-10725000D01*
X3025000Y-8325000D02*
X3025000Y-10725000D01*
D10*
G36*
X2921000Y-10604500D02*
X2921000Y-8445500D01*
X2222500Y-8445500D01*
X2222500Y-10604500D01*
X2921000Y-10604500D01*
G37*
X2921000Y-10604500D02*
X2921000Y-8445500D01*
X2222500Y-8445500D01*
X2222500Y-10604500D01*
X2921000Y-10604500D01*
G04 #@! TO.C,D01*
G36*
X21971000Y-10604500D02*
X21971000Y-8445500D01*
X21272500Y-8445500D01*
X21272500Y-10604500D01*
X21971000Y-10604500D01*
G37*
X21971000Y-10604500D02*
X21971000Y-8445500D01*
X21272500Y-8445500D01*
X21272500Y-10604500D01*
X21971000Y-10604500D01*
D12*
X22075000Y-8325000D02*
X22075000Y-10725000D01*
X22050000Y-10725000D02*
X16250000Y-10725000D01*
X16250000Y-10725000D02*
X16250000Y-8325000D01*
X16250000Y-8325000D02*
X22050000Y-8325000D01*
G04 #@! TO.C,D02*
X35300000Y-3562500D02*
X41100000Y-3562500D01*
X35300000Y-5962500D02*
X35300000Y-3562500D01*
X41100000Y-5962500D02*
X35300000Y-5962500D01*
X41125000Y-3562500D02*
X41125000Y-5962500D01*
D10*
G36*
X41021000Y-5842000D02*
X41021000Y-3683000D01*
X40322500Y-3683000D01*
X40322500Y-5842000D01*
X41021000Y-5842000D01*
G37*
X41021000Y-5842000D02*
X41021000Y-3683000D01*
X40322500Y-3683000D01*
X40322500Y-5842000D01*
X41021000Y-5842000D01*
G04 #@! TO.C,D03*
G36*
X60071000Y-3460750D02*
X60071000Y-1301750D01*
X59372500Y-1301750D01*
X59372500Y-3460750D01*
X60071000Y-3460750D01*
G37*
X60071000Y-3460750D02*
X60071000Y-1301750D01*
X59372500Y-1301750D01*
X59372500Y-3460750D01*
X60071000Y-3460750D01*
D12*
X60175000Y-1181250D02*
X60175000Y-3581250D01*
X60150000Y-3581250D02*
X54350000Y-3581250D01*
X54350000Y-3581250D02*
X54350000Y-1181250D01*
X54350000Y-1181250D02*
X60150000Y-1181250D01*
G04 #@! TO.C,D04*
X73400000Y-3562500D02*
X79200000Y-3562500D01*
X73400000Y-5962500D02*
X73400000Y-3562500D01*
X79200000Y-5962500D02*
X73400000Y-5962500D01*
X79225000Y-3562500D02*
X79225000Y-5962500D01*
D10*
G36*
X79121000Y-5842000D02*
X79121000Y-3683000D01*
X78422500Y-3683000D01*
X78422500Y-5842000D01*
X79121000Y-5842000D01*
G37*
X79121000Y-5842000D02*
X79121000Y-3683000D01*
X78422500Y-3683000D01*
X78422500Y-5842000D01*
X79121000Y-5842000D01*
G04 #@! TO.C,D05*
G36*
X98171000Y-8223250D02*
X98171000Y-6064250D01*
X97472500Y-6064250D01*
X97472500Y-8223250D01*
X98171000Y-8223250D01*
G37*
X98171000Y-8223250D02*
X98171000Y-6064250D01*
X97472500Y-6064250D01*
X97472500Y-8223250D01*
X98171000Y-8223250D01*
D12*
X98275000Y-5943750D02*
X98275000Y-8343750D01*
X98250000Y-8343750D02*
X92450000Y-8343750D01*
X92450000Y-8343750D02*
X92450000Y-5943750D01*
X92450000Y-5943750D02*
X98250000Y-5943750D01*
D10*
G04 #@! TO.C,D10*
G36*
X2921000Y-29654500D02*
X2921000Y-27495500D01*
X2222500Y-27495500D01*
X2222500Y-29654500D01*
X2921000Y-29654500D01*
G37*
X2921000Y-29654500D02*
X2921000Y-27495500D01*
X2222500Y-27495500D01*
X2222500Y-29654500D01*
X2921000Y-29654500D01*
D12*
X3025000Y-27375000D02*
X3025000Y-29775000D01*
X3000000Y-29775000D02*
X-2800000Y-29775000D01*
X-2800000Y-29775000D02*
X-2800000Y-27375000D01*
X-2800000Y-27375000D02*
X3000000Y-27375000D01*
G04 #@! TO.C,D11*
X16250000Y-27375000D02*
X22050000Y-27375000D01*
X16250000Y-29775000D02*
X16250000Y-27375000D01*
X22050000Y-29775000D02*
X16250000Y-29775000D01*
X22075000Y-27375000D02*
X22075000Y-29775000D01*
D10*
G36*
X21971000Y-29654500D02*
X21971000Y-27495500D01*
X21272500Y-27495500D01*
X21272500Y-29654500D01*
X21971000Y-29654500D01*
G37*
X21971000Y-29654500D02*
X21971000Y-27495500D01*
X21272500Y-27495500D01*
X21272500Y-29654500D01*
X21971000Y-29654500D01*
G04 #@! TO.C,D12*
G36*
X41021000Y-24892000D02*
X41021000Y-22733000D01*
X40322500Y-22733000D01*
X40322500Y-24892000D01*
X41021000Y-24892000D01*
G37*
X41021000Y-24892000D02*
X41021000Y-22733000D01*
X40322500Y-22733000D01*
X40322500Y-24892000D01*
X41021000Y-24892000D01*
D12*
X41125000Y-22612500D02*
X41125000Y-25012500D01*
X41100000Y-25012500D02*
X35300000Y-25012500D01*
X35300000Y-25012500D02*
X35300000Y-22612500D01*
X35300000Y-22612500D02*
X41100000Y-22612500D01*
G04 #@! TO.C,D13*
X54350000Y-20231250D02*
X60150000Y-20231250D01*
X54350000Y-22631250D02*
X54350000Y-20231250D01*
X60150000Y-22631250D02*
X54350000Y-22631250D01*
X60175000Y-20231250D02*
X60175000Y-22631250D01*
D10*
G36*
X60071000Y-22510750D02*
X60071000Y-20351750D01*
X59372500Y-20351750D01*
X59372500Y-22510750D01*
X60071000Y-22510750D01*
G37*
X60071000Y-22510750D02*
X60071000Y-20351750D01*
X59372500Y-20351750D01*
X59372500Y-22510750D01*
X60071000Y-22510750D01*
G04 #@! TO.C,D14*
G36*
X79121000Y-24892000D02*
X79121000Y-22733000D01*
X78422500Y-22733000D01*
X78422500Y-24892000D01*
X79121000Y-24892000D01*
G37*
X79121000Y-24892000D02*
X79121000Y-22733000D01*
X78422500Y-22733000D01*
X78422500Y-24892000D01*
X79121000Y-24892000D01*
D12*
X79225000Y-22612500D02*
X79225000Y-25012500D01*
X79200000Y-25012500D02*
X73400000Y-25012500D01*
X73400000Y-25012500D02*
X73400000Y-22612500D01*
X73400000Y-22612500D02*
X79200000Y-22612500D01*
G04 #@! TO.C,D15*
X92450000Y-24993750D02*
X98250000Y-24993750D01*
X92450000Y-27393750D02*
X92450000Y-24993750D01*
X98250000Y-27393750D02*
X92450000Y-27393750D01*
X98275000Y-24993750D02*
X98275000Y-27393750D01*
D10*
G36*
X98171000Y-27273250D02*
X98171000Y-25114250D01*
X97472500Y-25114250D01*
X97472500Y-27273250D01*
X98171000Y-27273250D01*
G37*
X98171000Y-27273250D02*
X98171000Y-25114250D01*
X97472500Y-25114250D01*
X97472500Y-27273250D01*
X98171000Y-27273250D01*
G04 #@! TO.C,D20*
G36*
X8445500Y-41021000D02*
X10604500Y-41021000D01*
X10604500Y-40322500D01*
X8445500Y-40322500D01*
X8445500Y-41021000D01*
G37*
X8445500Y-41021000D02*
X10604500Y-41021000D01*
X10604500Y-40322500D01*
X8445500Y-40322500D01*
X8445500Y-41021000D01*
D12*
X10725000Y-41125000D02*
X8325000Y-41125000D01*
X8325000Y-41100000D02*
X8325000Y-35300000D01*
X8325000Y-35300000D02*
X10725000Y-35300000D01*
X10725000Y-35300000D02*
X10725000Y-41100000D01*
G04 #@! TO.C,D21*
X29775000Y-35300000D02*
X29775000Y-41100000D01*
X27375000Y-35300000D02*
X29775000Y-35300000D01*
X27375000Y-41100000D02*
X27375000Y-35300000D01*
X29775000Y-41125000D02*
X27375000Y-41125000D01*
D10*
G36*
X27495500Y-41021000D02*
X29654500Y-41021000D01*
X29654500Y-40322500D01*
X27495500Y-40322500D01*
X27495500Y-41021000D01*
G37*
X27495500Y-41021000D02*
X29654500Y-41021000D01*
X29654500Y-40322500D01*
X27495500Y-40322500D01*
X27495500Y-41021000D01*
G04 #@! TO.C,D22*
G36*
X41021000Y-43942000D02*
X41021000Y-41783000D01*
X40322500Y-41783000D01*
X40322500Y-43942000D01*
X41021000Y-43942000D01*
G37*
X41021000Y-43942000D02*
X41021000Y-41783000D01*
X40322500Y-41783000D01*
X40322500Y-43942000D01*
X41021000Y-43942000D01*
D12*
X41125000Y-41662500D02*
X41125000Y-44062500D01*
X41100000Y-44062500D02*
X35300000Y-44062500D01*
X35300000Y-44062500D02*
X35300000Y-41662500D01*
X35300000Y-41662500D02*
X41100000Y-41662500D01*
G04 #@! TO.C,D23*
X54350000Y-39281250D02*
X60150000Y-39281250D01*
X54350000Y-41681250D02*
X54350000Y-39281250D01*
X60150000Y-41681250D02*
X54350000Y-41681250D01*
X60175000Y-39281250D02*
X60175000Y-41681250D01*
D10*
G36*
X60071000Y-41560750D02*
X60071000Y-39401750D01*
X59372500Y-39401750D01*
X59372500Y-41560750D01*
X60071000Y-41560750D01*
G37*
X60071000Y-41560750D02*
X60071000Y-39401750D01*
X59372500Y-39401750D01*
X59372500Y-41560750D01*
X60071000Y-41560750D01*
G04 #@! TO.C,D24*
G36*
X79121000Y-43942000D02*
X79121000Y-41783000D01*
X78422500Y-41783000D01*
X78422500Y-43942000D01*
X79121000Y-43942000D01*
G37*
X79121000Y-43942000D02*
X79121000Y-41783000D01*
X78422500Y-41783000D01*
X78422500Y-43942000D01*
X79121000Y-43942000D01*
D12*
X79225000Y-41662500D02*
X79225000Y-44062500D01*
X79200000Y-44062500D02*
X73400000Y-44062500D01*
X73400000Y-44062500D02*
X73400000Y-41662500D01*
X73400000Y-41662500D02*
X79200000Y-41662500D01*
G04 #@! TO.C,D25*
X92450000Y-44043750D02*
X98250000Y-44043750D01*
X92450000Y-46443750D02*
X92450000Y-44043750D01*
X98250000Y-46443750D02*
X92450000Y-46443750D01*
X98275000Y-44043750D02*
X98275000Y-46443750D01*
D10*
G36*
X98171000Y-46323250D02*
X98171000Y-44164250D01*
X97472500Y-44164250D01*
X97472500Y-46323250D01*
X98171000Y-46323250D01*
G37*
X98171000Y-46323250D02*
X98171000Y-44164250D01*
X97472500Y-44164250D01*
X97472500Y-46323250D01*
X98171000Y-46323250D01*
G04 #@! TO.C,D30*
G36*
X51308000Y-60071000D02*
X53467000Y-60071000D01*
X53467000Y-59372500D01*
X51308000Y-59372500D01*
X51308000Y-60071000D01*
G37*
X51308000Y-60071000D02*
X53467000Y-60071000D01*
X53467000Y-59372500D01*
X51308000Y-59372500D01*
X51308000Y-60071000D01*
D12*
X53587500Y-60175000D02*
X51187500Y-60175000D01*
X51187500Y-60150000D02*
X51187500Y-54350000D01*
X51187500Y-54350000D02*
X53587500Y-54350000D01*
X53587500Y-54350000D02*
X53587500Y-60150000D01*
G04 #@! TO.C,D31*
X72637500Y-54350000D02*
X72637500Y-60150000D01*
X70237500Y-54350000D02*
X72637500Y-54350000D01*
X70237500Y-60150000D02*
X70237500Y-54350000D01*
X72637500Y-60175000D02*
X70237500Y-60175000D01*
D10*
G36*
X70358000Y-60071000D02*
X72517000Y-60071000D01*
X72517000Y-59372500D01*
X70358000Y-59372500D01*
X70358000Y-60071000D01*
G37*
X70358000Y-60071000D02*
X72517000Y-60071000D01*
X72517000Y-59372500D01*
X70358000Y-59372500D01*
X70358000Y-60071000D01*
G04 #@! TO.C,D32*
G36*
X91431273Y-65552074D02*
X93516706Y-66110864D01*
X93697492Y-65436165D01*
X91612058Y-64877375D01*
X91431273Y-65552074D01*
G37*
X91431273Y-65552074D02*
X93516706Y-66110864D01*
X93697492Y-65436165D01*
X91612058Y-64877375D01*
X91431273Y-65552074D01*
D12*
X93606183Y-66242508D02*
X91287961Y-65621343D01*
X91294432Y-65597195D02*
X92795582Y-59994825D01*
X92795582Y-59994825D02*
X95113804Y-60615992D01*
X95113804Y-60615992D02*
X93612654Y-66218360D01*
G04 #@! TO.C,D33*
X100519230Y-60685129D02*
X97619230Y-65708076D01*
X98440770Y-59485129D02*
X100519230Y-60685129D01*
X95540770Y-64508076D02*
X98440770Y-59485129D01*
X97606730Y-65729727D02*
X95528270Y-64529727D01*
D10*
G36*
X95684626Y-64499910D02*
X97554374Y-65579410D01*
X97903624Y-64974491D01*
X96033876Y-63894991D01*
X95684626Y-64499910D01*
G37*
X95684626Y-64499910D02*
X97554374Y-65579410D01*
X97903624Y-64974491D01*
X96033876Y-63894991D01*
X95684626Y-64499910D01*
G04 #@! TO.C,D34*
G36*
X113141000Y-36729500D02*
X113141000Y-34570500D01*
X112442500Y-34570500D01*
X112442500Y-36729500D01*
X113141000Y-36729500D01*
G37*
X113141000Y-36729500D02*
X113141000Y-34570500D01*
X112442500Y-34570500D01*
X112442500Y-36729500D01*
X113141000Y-36729500D01*
D12*
X113245000Y-34450000D02*
X113245000Y-36850000D01*
X113220000Y-36850000D02*
X107420000Y-36850000D01*
X107420000Y-36850000D02*
X107420000Y-34450000D01*
X107420000Y-34450000D02*
X113220000Y-34450000D01*
G04 #@! TO.C,D35*
X111500000Y-15468750D02*
X117300000Y-15468750D01*
X111500000Y-17868750D02*
X111500000Y-15468750D01*
X117300000Y-17868750D02*
X111500000Y-17868750D01*
X117325000Y-15468750D02*
X117325000Y-17868750D01*
D10*
G36*
X117221000Y-17748250D02*
X117221000Y-15589250D01*
X116522500Y-15589250D01*
X116522500Y-17748250D01*
X117221000Y-17748250D01*
G37*
X117221000Y-17748250D02*
X117221000Y-15589250D01*
X116522500Y-15589250D01*
X116522500Y-17748250D01*
X117221000Y-17748250D01*
G04 #@! TO.C,J1*
X116578880Y-40275095D02*
X116578880Y-40846523D01*
X117578880Y-40560809D02*
X116578880Y-40560809D01*
X117578880Y-41751285D02*
X117102690Y-41417952D01*
X117578880Y-41179857D02*
X116578880Y-41179857D01*
X116578880Y-41560809D01*
X116626500Y-41656047D01*
X116674119Y-41703666D01*
X116769357Y-41751285D01*
X116912214Y-41751285D01*
X117007452Y-41703666D01*
X117055071Y-41656047D01*
X117102690Y-41560809D01*
X117102690Y-41179857D01*
X117578880Y-42751285D02*
X117102690Y-42417952D01*
X117578880Y-42179857D02*
X116578880Y-42179857D01*
X116578880Y-42560809D01*
X116626500Y-42656047D01*
X116674119Y-42703666D01*
X116769357Y-42751285D01*
X116912214Y-42751285D01*
X117007452Y-42703666D01*
X117055071Y-42656047D01*
X117102690Y-42560809D01*
X117102690Y-42179857D01*
X117531261Y-43132238D02*
X117578880Y-43275095D01*
X117578880Y-43513190D01*
X117531261Y-43608428D01*
X117483642Y-43656047D01*
X117388404Y-43703666D01*
X117293166Y-43703666D01*
X117197928Y-43656047D01*
X117150309Y-43608428D01*
X117102690Y-43513190D01*
X117055071Y-43322714D01*
X117007452Y-43227476D01*
X116959833Y-43179857D01*
X116864595Y-43132238D01*
X116769357Y-43132238D01*
X116674119Y-43179857D01*
X116626500Y-43227476D01*
X116578880Y-43322714D01*
X116578880Y-43560809D01*
X116626500Y-43703666D01*
G04 #@! TO.C,D00*
X971428Y-7961904D02*
X971428Y-7161904D01*
X780952Y-7161904D01*
X666666Y-7200000D01*
X590476Y-7276190D01*
X552380Y-7352380D01*
X514285Y-7504761D01*
X514285Y-7619047D01*
X552380Y-7771428D01*
X590476Y-7847619D01*
X666666Y-7923809D01*
X780952Y-7961904D01*
X971428Y-7961904D01*
X19047Y-7161904D02*
X-57142Y-7161904D01*
X-133333Y-7200000D01*
X-171428Y-7238095D01*
X-209523Y-7314285D01*
X-247619Y-7466666D01*
X-247619Y-7657142D01*
X-209523Y-7809523D01*
X-171428Y-7885714D01*
X-133333Y-7923809D01*
X-57142Y-7961904D01*
X19047Y-7961904D01*
X95238Y-7923809D01*
X133333Y-7885714D01*
X171428Y-7809523D01*
X209523Y-7657142D01*
X209523Y-7466666D01*
X171428Y-7314285D01*
X133333Y-7238095D01*
X95238Y-7200000D01*
X19047Y-7161904D01*
X-742857Y-7161904D02*
X-819047Y-7161904D01*
X-895238Y-7200000D01*
X-933333Y-7238095D01*
X-971428Y-7314285D01*
X-1009523Y-7466666D01*
X-1009523Y-7657142D01*
X-971428Y-7809523D01*
X-933333Y-7885714D01*
X-895238Y-7923809D01*
X-819047Y-7961904D01*
X-742857Y-7961904D01*
X-666666Y-7923809D01*
X-628571Y-7885714D01*
X-590476Y-7809523D01*
X-552380Y-7657142D01*
X-552380Y-7466666D01*
X-590476Y-7314285D01*
X-628571Y-7238095D01*
X-666666Y-7200000D01*
X-742857Y-7161904D01*
G04 #@! TO.C,D01*
X20021428Y-7961904D02*
X20021428Y-7161904D01*
X19830952Y-7161904D01*
X19716666Y-7200000D01*
X19640476Y-7276190D01*
X19602380Y-7352380D01*
X19564285Y-7504761D01*
X19564285Y-7619047D01*
X19602380Y-7771428D01*
X19640476Y-7847619D01*
X19716666Y-7923809D01*
X19830952Y-7961904D01*
X20021428Y-7961904D01*
X19069047Y-7161904D02*
X18992857Y-7161904D01*
X18916666Y-7200000D01*
X18878571Y-7238095D01*
X18840476Y-7314285D01*
X18802380Y-7466666D01*
X18802380Y-7657142D01*
X18840476Y-7809523D01*
X18878571Y-7885714D01*
X18916666Y-7923809D01*
X18992857Y-7961904D01*
X19069047Y-7961904D01*
X19145238Y-7923809D01*
X19183333Y-7885714D01*
X19221428Y-7809523D01*
X19259523Y-7657142D01*
X19259523Y-7466666D01*
X19221428Y-7314285D01*
X19183333Y-7238095D01*
X19145238Y-7200000D01*
X19069047Y-7161904D01*
X18040476Y-7961904D02*
X18497619Y-7961904D01*
X18269047Y-7961904D02*
X18269047Y-7161904D01*
X18345238Y-7276190D01*
X18421428Y-7352380D01*
X18497619Y-7390476D01*
G04 #@! TO.C,D02*
X39071428Y-3199404D02*
X39071428Y-2399404D01*
X38880952Y-2399404D01*
X38766666Y-2437500D01*
X38690476Y-2513690D01*
X38652380Y-2589880D01*
X38614285Y-2742261D01*
X38614285Y-2856547D01*
X38652380Y-3008928D01*
X38690476Y-3085119D01*
X38766666Y-3161309D01*
X38880952Y-3199404D01*
X39071428Y-3199404D01*
X38119047Y-2399404D02*
X38042857Y-2399404D01*
X37966666Y-2437500D01*
X37928571Y-2475595D01*
X37890476Y-2551785D01*
X37852380Y-2704166D01*
X37852380Y-2894642D01*
X37890476Y-3047023D01*
X37928571Y-3123214D01*
X37966666Y-3161309D01*
X38042857Y-3199404D01*
X38119047Y-3199404D01*
X38195238Y-3161309D01*
X38233333Y-3123214D01*
X38271428Y-3047023D01*
X38309523Y-2894642D01*
X38309523Y-2704166D01*
X38271428Y-2551785D01*
X38233333Y-2475595D01*
X38195238Y-2437500D01*
X38119047Y-2399404D01*
X37547619Y-2475595D02*
X37509523Y-2437500D01*
X37433333Y-2399404D01*
X37242857Y-2399404D01*
X37166666Y-2437500D01*
X37128571Y-2475595D01*
X37090476Y-2551785D01*
X37090476Y-2627976D01*
X37128571Y-2742261D01*
X37585714Y-3199404D01*
X37090476Y-3199404D01*
G04 #@! TO.C,D03*
X58121428Y-818154D02*
X58121428Y-18154D01*
X57930952Y-18154D01*
X57816666Y-56250D01*
X57740476Y-132440D01*
X57702380Y-208630D01*
X57664285Y-361011D01*
X57664285Y-475297D01*
X57702380Y-627678D01*
X57740476Y-703869D01*
X57816666Y-780059D01*
X57930952Y-818154D01*
X58121428Y-818154D01*
X57169047Y-18154D02*
X57092857Y-18154D01*
X57016666Y-56250D01*
X56978571Y-94345D01*
X56940476Y-170535D01*
X56902380Y-322916D01*
X56902380Y-513392D01*
X56940476Y-665773D01*
X56978571Y-741964D01*
X57016666Y-780059D01*
X57092857Y-818154D01*
X57169047Y-818154D01*
X57245238Y-780059D01*
X57283333Y-741964D01*
X57321428Y-665773D01*
X57359523Y-513392D01*
X57359523Y-322916D01*
X57321428Y-170535D01*
X57283333Y-94345D01*
X57245238Y-56250D01*
X57169047Y-18154D01*
X56635714Y-18154D02*
X56140476Y-18154D01*
X56407142Y-322916D01*
X56292857Y-322916D01*
X56216666Y-361011D01*
X56178571Y-399107D01*
X56140476Y-475297D01*
X56140476Y-665773D01*
X56178571Y-741964D01*
X56216666Y-780059D01*
X56292857Y-818154D01*
X56521428Y-818154D01*
X56597619Y-780059D01*
X56635714Y-741964D01*
G04 #@! TO.C,D04*
X77171428Y-3199404D02*
X77171428Y-2399404D01*
X76980952Y-2399404D01*
X76866666Y-2437500D01*
X76790476Y-2513690D01*
X76752380Y-2589880D01*
X76714285Y-2742261D01*
X76714285Y-2856547D01*
X76752380Y-3008928D01*
X76790476Y-3085119D01*
X76866666Y-3161309D01*
X76980952Y-3199404D01*
X77171428Y-3199404D01*
X76219047Y-2399404D02*
X76142857Y-2399404D01*
X76066666Y-2437500D01*
X76028571Y-2475595D01*
X75990476Y-2551785D01*
X75952380Y-2704166D01*
X75952380Y-2894642D01*
X75990476Y-3047023D01*
X76028571Y-3123214D01*
X76066666Y-3161309D01*
X76142857Y-3199404D01*
X76219047Y-3199404D01*
X76295238Y-3161309D01*
X76333333Y-3123214D01*
X76371428Y-3047023D01*
X76409523Y-2894642D01*
X76409523Y-2704166D01*
X76371428Y-2551785D01*
X76333333Y-2475595D01*
X76295238Y-2437500D01*
X76219047Y-2399404D01*
X75266666Y-2666071D02*
X75266666Y-3199404D01*
X75457142Y-2361309D02*
X75647619Y-2932738D01*
X75152380Y-2932738D01*
G04 #@! TO.C,D05*
X96221428Y-5580654D02*
X96221428Y-4780654D01*
X96030952Y-4780654D01*
X95916666Y-4818750D01*
X95840476Y-4894940D01*
X95802380Y-4971130D01*
X95764285Y-5123511D01*
X95764285Y-5237797D01*
X95802380Y-5390178D01*
X95840476Y-5466369D01*
X95916666Y-5542559D01*
X96030952Y-5580654D01*
X96221428Y-5580654D01*
X95269047Y-4780654D02*
X95192857Y-4780654D01*
X95116666Y-4818750D01*
X95078571Y-4856845D01*
X95040476Y-4933035D01*
X95002380Y-5085416D01*
X95002380Y-5275892D01*
X95040476Y-5428273D01*
X95078571Y-5504464D01*
X95116666Y-5542559D01*
X95192857Y-5580654D01*
X95269047Y-5580654D01*
X95345238Y-5542559D01*
X95383333Y-5504464D01*
X95421428Y-5428273D01*
X95459523Y-5275892D01*
X95459523Y-5085416D01*
X95421428Y-4933035D01*
X95383333Y-4856845D01*
X95345238Y-4818750D01*
X95269047Y-4780654D01*
X94278571Y-4780654D02*
X94659523Y-4780654D01*
X94697619Y-5161607D01*
X94659523Y-5123511D01*
X94583333Y-5085416D01*
X94392857Y-5085416D01*
X94316666Y-5123511D01*
X94278571Y-5161607D01*
X94240476Y-5237797D01*
X94240476Y-5428273D01*
X94278571Y-5504464D01*
X94316666Y-5542559D01*
X94392857Y-5580654D01*
X94583333Y-5580654D01*
X94659523Y-5542559D01*
X94697619Y-5504464D01*
G04 #@! TO.C,D10*
X971428Y-27011904D02*
X971428Y-26211904D01*
X780952Y-26211904D01*
X666666Y-26250000D01*
X590476Y-26326190D01*
X552380Y-26402380D01*
X514285Y-26554761D01*
X514285Y-26669047D01*
X552380Y-26821428D01*
X590476Y-26897619D01*
X666666Y-26973809D01*
X780952Y-27011904D01*
X971428Y-27011904D01*
X-247619Y-27011904D02*
X209523Y-27011904D01*
X-19047Y-27011904D02*
X-19047Y-26211904D01*
X57142Y-26326190D01*
X133333Y-26402380D01*
X209523Y-26440476D01*
X-742857Y-26211904D02*
X-819047Y-26211904D01*
X-895238Y-26250000D01*
X-933333Y-26288095D01*
X-971428Y-26364285D01*
X-1009523Y-26516666D01*
X-1009523Y-26707142D01*
X-971428Y-26859523D01*
X-933333Y-26935714D01*
X-895238Y-26973809D01*
X-819047Y-27011904D01*
X-742857Y-27011904D01*
X-666666Y-26973809D01*
X-628571Y-26935714D01*
X-590476Y-26859523D01*
X-552380Y-26707142D01*
X-552380Y-26516666D01*
X-590476Y-26364285D01*
X-628571Y-26288095D01*
X-666666Y-26250000D01*
X-742857Y-26211904D01*
G04 #@! TO.C,D11*
X20021428Y-27011904D02*
X20021428Y-26211904D01*
X19830952Y-26211904D01*
X19716666Y-26250000D01*
X19640476Y-26326190D01*
X19602380Y-26402380D01*
X19564285Y-26554761D01*
X19564285Y-26669047D01*
X19602380Y-26821428D01*
X19640476Y-26897619D01*
X19716666Y-26973809D01*
X19830952Y-27011904D01*
X20021428Y-27011904D01*
X18802380Y-27011904D02*
X19259523Y-27011904D01*
X19030952Y-27011904D02*
X19030952Y-26211904D01*
X19107142Y-26326190D01*
X19183333Y-26402380D01*
X19259523Y-26440476D01*
X18040476Y-27011904D02*
X18497619Y-27011904D01*
X18269047Y-27011904D02*
X18269047Y-26211904D01*
X18345238Y-26326190D01*
X18421428Y-26402380D01*
X18497619Y-26440476D01*
G04 #@! TO.C,D12*
X39071428Y-22249404D02*
X39071428Y-21449404D01*
X38880952Y-21449404D01*
X38766666Y-21487500D01*
X38690476Y-21563690D01*
X38652380Y-21639880D01*
X38614285Y-21792261D01*
X38614285Y-21906547D01*
X38652380Y-22058928D01*
X38690476Y-22135119D01*
X38766666Y-22211309D01*
X38880952Y-22249404D01*
X39071428Y-22249404D01*
X37852380Y-22249404D02*
X38309523Y-22249404D01*
X38080952Y-22249404D02*
X38080952Y-21449404D01*
X38157142Y-21563690D01*
X38233333Y-21639880D01*
X38309523Y-21677976D01*
X37547619Y-21525595D02*
X37509523Y-21487500D01*
X37433333Y-21449404D01*
X37242857Y-21449404D01*
X37166666Y-21487500D01*
X37128571Y-21525595D01*
X37090476Y-21601785D01*
X37090476Y-21677976D01*
X37128571Y-21792261D01*
X37585714Y-22249404D01*
X37090476Y-22249404D01*
G04 #@! TO.C,D13*
X58121428Y-19868154D02*
X58121428Y-19068154D01*
X57930952Y-19068154D01*
X57816666Y-19106250D01*
X57740476Y-19182440D01*
X57702380Y-19258630D01*
X57664285Y-19411011D01*
X57664285Y-19525297D01*
X57702380Y-19677678D01*
X57740476Y-19753869D01*
X57816666Y-19830059D01*
X57930952Y-19868154D01*
X58121428Y-19868154D01*
X56902380Y-19868154D02*
X57359523Y-19868154D01*
X57130952Y-19868154D02*
X57130952Y-19068154D01*
X57207142Y-19182440D01*
X57283333Y-19258630D01*
X57359523Y-19296726D01*
X56635714Y-19068154D02*
X56140476Y-19068154D01*
X56407142Y-19372916D01*
X56292857Y-19372916D01*
X56216666Y-19411011D01*
X56178571Y-19449107D01*
X56140476Y-19525297D01*
X56140476Y-19715773D01*
X56178571Y-19791964D01*
X56216666Y-19830059D01*
X56292857Y-19868154D01*
X56521428Y-19868154D01*
X56597619Y-19830059D01*
X56635714Y-19791964D01*
G04 #@! TO.C,D14*
X77171428Y-22249404D02*
X77171428Y-21449404D01*
X76980952Y-21449404D01*
X76866666Y-21487500D01*
X76790476Y-21563690D01*
X76752380Y-21639880D01*
X76714285Y-21792261D01*
X76714285Y-21906547D01*
X76752380Y-22058928D01*
X76790476Y-22135119D01*
X76866666Y-22211309D01*
X76980952Y-22249404D01*
X77171428Y-22249404D01*
X75952380Y-22249404D02*
X76409523Y-22249404D01*
X76180952Y-22249404D02*
X76180952Y-21449404D01*
X76257142Y-21563690D01*
X76333333Y-21639880D01*
X76409523Y-21677976D01*
X75266666Y-21716071D02*
X75266666Y-22249404D01*
X75457142Y-21411309D02*
X75647619Y-21982738D01*
X75152380Y-21982738D01*
G04 #@! TO.C,D15*
X96221428Y-24630654D02*
X96221428Y-23830654D01*
X96030952Y-23830654D01*
X95916666Y-23868750D01*
X95840476Y-23944940D01*
X95802380Y-24021130D01*
X95764285Y-24173511D01*
X95764285Y-24287797D01*
X95802380Y-24440178D01*
X95840476Y-24516369D01*
X95916666Y-24592559D01*
X96030952Y-24630654D01*
X96221428Y-24630654D01*
X95002380Y-24630654D02*
X95459523Y-24630654D01*
X95230952Y-24630654D02*
X95230952Y-23830654D01*
X95307142Y-23944940D01*
X95383333Y-24021130D01*
X95459523Y-24059226D01*
X94278571Y-23830654D02*
X94659523Y-23830654D01*
X94697619Y-24211607D01*
X94659523Y-24173511D01*
X94583333Y-24135416D01*
X94392857Y-24135416D01*
X94316666Y-24173511D01*
X94278571Y-24211607D01*
X94240476Y-24287797D01*
X94240476Y-24478273D01*
X94278571Y-24554464D01*
X94316666Y-24592559D01*
X94392857Y-24630654D01*
X94583333Y-24630654D01*
X94659523Y-24592559D01*
X94697619Y-24554464D01*
G04 #@! TO.C,D20*
X11811904Y-37128571D02*
X11011904Y-37128571D01*
X11011904Y-37319047D01*
X11050000Y-37433333D01*
X11126190Y-37509523D01*
X11202380Y-37547619D01*
X11354761Y-37585714D01*
X11469047Y-37585714D01*
X11621428Y-37547619D01*
X11697619Y-37509523D01*
X11773809Y-37433333D01*
X11811904Y-37319047D01*
X11811904Y-37128571D01*
X11088095Y-37890476D02*
X11050000Y-37928571D01*
X11011904Y-38004761D01*
X11011904Y-38195238D01*
X11050000Y-38271428D01*
X11088095Y-38309523D01*
X11164285Y-38347619D01*
X11240476Y-38347619D01*
X11354761Y-38309523D01*
X11811904Y-37852380D01*
X11811904Y-38347619D01*
X11011904Y-38842857D02*
X11011904Y-38919047D01*
X11050000Y-38995238D01*
X11088095Y-39033333D01*
X11164285Y-39071428D01*
X11316666Y-39109523D01*
X11507142Y-39109523D01*
X11659523Y-39071428D01*
X11735714Y-39033333D01*
X11773809Y-38995238D01*
X11811904Y-38919047D01*
X11811904Y-38842857D01*
X11773809Y-38766666D01*
X11735714Y-38728571D01*
X11659523Y-38690476D01*
X11507142Y-38652380D01*
X11316666Y-38652380D01*
X11164285Y-38690476D01*
X11088095Y-38728571D01*
X11050000Y-38766666D01*
X11011904Y-38842857D01*
G04 #@! TO.C,D21*
X30861904Y-37128571D02*
X30061904Y-37128571D01*
X30061904Y-37319047D01*
X30100000Y-37433333D01*
X30176190Y-37509523D01*
X30252380Y-37547619D01*
X30404761Y-37585714D01*
X30519047Y-37585714D01*
X30671428Y-37547619D01*
X30747619Y-37509523D01*
X30823809Y-37433333D01*
X30861904Y-37319047D01*
X30861904Y-37128571D01*
X30138095Y-37890476D02*
X30100000Y-37928571D01*
X30061904Y-38004761D01*
X30061904Y-38195238D01*
X30100000Y-38271428D01*
X30138095Y-38309523D01*
X30214285Y-38347619D01*
X30290476Y-38347619D01*
X30404761Y-38309523D01*
X30861904Y-37852380D01*
X30861904Y-38347619D01*
X30861904Y-39109523D02*
X30861904Y-38652380D01*
X30861904Y-38880952D02*
X30061904Y-38880952D01*
X30176190Y-38804761D01*
X30252380Y-38728571D01*
X30290476Y-38652380D01*
G04 #@! TO.C,D22*
X39071428Y-41299404D02*
X39071428Y-40499404D01*
X38880952Y-40499404D01*
X38766666Y-40537500D01*
X38690476Y-40613690D01*
X38652380Y-40689880D01*
X38614285Y-40842261D01*
X38614285Y-40956547D01*
X38652380Y-41108928D01*
X38690476Y-41185119D01*
X38766666Y-41261309D01*
X38880952Y-41299404D01*
X39071428Y-41299404D01*
X38309523Y-40575595D02*
X38271428Y-40537500D01*
X38195238Y-40499404D01*
X38004761Y-40499404D01*
X37928571Y-40537500D01*
X37890476Y-40575595D01*
X37852380Y-40651785D01*
X37852380Y-40727976D01*
X37890476Y-40842261D01*
X38347619Y-41299404D01*
X37852380Y-41299404D01*
X37547619Y-40575595D02*
X37509523Y-40537500D01*
X37433333Y-40499404D01*
X37242857Y-40499404D01*
X37166666Y-40537500D01*
X37128571Y-40575595D01*
X37090476Y-40651785D01*
X37090476Y-40727976D01*
X37128571Y-40842261D01*
X37585714Y-41299404D01*
X37090476Y-41299404D01*
G04 #@! TO.C,D23*
X58121428Y-38918154D02*
X58121428Y-38118154D01*
X57930952Y-38118154D01*
X57816666Y-38156250D01*
X57740476Y-38232440D01*
X57702380Y-38308630D01*
X57664285Y-38461011D01*
X57664285Y-38575297D01*
X57702380Y-38727678D01*
X57740476Y-38803869D01*
X57816666Y-38880059D01*
X57930952Y-38918154D01*
X58121428Y-38918154D01*
X57359523Y-38194345D02*
X57321428Y-38156250D01*
X57245238Y-38118154D01*
X57054761Y-38118154D01*
X56978571Y-38156250D01*
X56940476Y-38194345D01*
X56902380Y-38270535D01*
X56902380Y-38346726D01*
X56940476Y-38461011D01*
X57397619Y-38918154D01*
X56902380Y-38918154D01*
X56635714Y-38118154D02*
X56140476Y-38118154D01*
X56407142Y-38422916D01*
X56292857Y-38422916D01*
X56216666Y-38461011D01*
X56178571Y-38499107D01*
X56140476Y-38575297D01*
X56140476Y-38765773D01*
X56178571Y-38841964D01*
X56216666Y-38880059D01*
X56292857Y-38918154D01*
X56521428Y-38918154D01*
X56597619Y-38880059D01*
X56635714Y-38841964D01*
G04 #@! TO.C,D24*
X77171428Y-41299404D02*
X77171428Y-40499404D01*
X76980952Y-40499404D01*
X76866666Y-40537500D01*
X76790476Y-40613690D01*
X76752380Y-40689880D01*
X76714285Y-40842261D01*
X76714285Y-40956547D01*
X76752380Y-41108928D01*
X76790476Y-41185119D01*
X76866666Y-41261309D01*
X76980952Y-41299404D01*
X77171428Y-41299404D01*
X76409523Y-40575595D02*
X76371428Y-40537500D01*
X76295238Y-40499404D01*
X76104761Y-40499404D01*
X76028571Y-40537500D01*
X75990476Y-40575595D01*
X75952380Y-40651785D01*
X75952380Y-40727976D01*
X75990476Y-40842261D01*
X76447619Y-41299404D01*
X75952380Y-41299404D01*
X75266666Y-40766071D02*
X75266666Y-41299404D01*
X75457142Y-40461309D02*
X75647619Y-41032738D01*
X75152380Y-41032738D01*
G04 #@! TO.C,D25*
X96221428Y-43680654D02*
X96221428Y-42880654D01*
X96030952Y-42880654D01*
X95916666Y-42918750D01*
X95840476Y-42994940D01*
X95802380Y-43071130D01*
X95764285Y-43223511D01*
X95764285Y-43337797D01*
X95802380Y-43490178D01*
X95840476Y-43566369D01*
X95916666Y-43642559D01*
X96030952Y-43680654D01*
X96221428Y-43680654D01*
X95459523Y-42956845D02*
X95421428Y-42918750D01*
X95345238Y-42880654D01*
X95154761Y-42880654D01*
X95078571Y-42918750D01*
X95040476Y-42956845D01*
X95002380Y-43033035D01*
X95002380Y-43109226D01*
X95040476Y-43223511D01*
X95497619Y-43680654D01*
X95002380Y-43680654D01*
X94278571Y-42880654D02*
X94659523Y-42880654D01*
X94697619Y-43261607D01*
X94659523Y-43223511D01*
X94583333Y-43185416D01*
X94392857Y-43185416D01*
X94316666Y-43223511D01*
X94278571Y-43261607D01*
X94240476Y-43337797D01*
X94240476Y-43528273D01*
X94278571Y-43604464D01*
X94316666Y-43642559D01*
X94392857Y-43680654D01*
X94583333Y-43680654D01*
X94659523Y-43642559D01*
X94697619Y-43604464D01*
G04 #@! TO.C,D30*
X54674404Y-56178571D02*
X53874404Y-56178571D01*
X53874404Y-56369047D01*
X53912500Y-56483333D01*
X53988690Y-56559523D01*
X54064880Y-56597619D01*
X54217261Y-56635714D01*
X54331547Y-56635714D01*
X54483928Y-56597619D01*
X54560119Y-56559523D01*
X54636309Y-56483333D01*
X54674404Y-56369047D01*
X54674404Y-56178571D01*
X53874404Y-56902380D02*
X53874404Y-57397619D01*
X54179166Y-57130952D01*
X54179166Y-57245238D01*
X54217261Y-57321428D01*
X54255357Y-57359523D01*
X54331547Y-57397619D01*
X54522023Y-57397619D01*
X54598214Y-57359523D01*
X54636309Y-57321428D01*
X54674404Y-57245238D01*
X54674404Y-57016666D01*
X54636309Y-56940476D01*
X54598214Y-56902380D01*
X53874404Y-57892857D02*
X53874404Y-57969047D01*
X53912500Y-58045238D01*
X53950595Y-58083333D01*
X54026785Y-58121428D01*
X54179166Y-58159523D01*
X54369642Y-58159523D01*
X54522023Y-58121428D01*
X54598214Y-58083333D01*
X54636309Y-58045238D01*
X54674404Y-57969047D01*
X54674404Y-57892857D01*
X54636309Y-57816666D01*
X54598214Y-57778571D01*
X54522023Y-57740476D01*
X54369642Y-57702380D01*
X54179166Y-57702380D01*
X54026785Y-57740476D01*
X53950595Y-57778571D01*
X53912500Y-57816666D01*
X53874404Y-57892857D01*
G04 #@! TO.C,D31*
X73724404Y-56178571D02*
X72924404Y-56178571D01*
X72924404Y-56369047D01*
X72962500Y-56483333D01*
X73038690Y-56559523D01*
X73114880Y-56597619D01*
X73267261Y-56635714D01*
X73381547Y-56635714D01*
X73533928Y-56597619D01*
X73610119Y-56559523D01*
X73686309Y-56483333D01*
X73724404Y-56369047D01*
X73724404Y-56178571D01*
X72924404Y-56902380D02*
X72924404Y-57397619D01*
X73229166Y-57130952D01*
X73229166Y-57245238D01*
X73267261Y-57321428D01*
X73305357Y-57359523D01*
X73381547Y-57397619D01*
X73572023Y-57397619D01*
X73648214Y-57359523D01*
X73686309Y-57321428D01*
X73724404Y-57245238D01*
X73724404Y-57016666D01*
X73686309Y-56940476D01*
X73648214Y-56902380D01*
X73724404Y-58159523D02*
X73724404Y-57702380D01*
X73724404Y-57930952D02*
X72924404Y-57930952D01*
X73038690Y-57854761D01*
X73114880Y-57778571D01*
X73152976Y-57702380D01*
G04 #@! TO.C,D32*
X91950997Y-61715339D02*
X91178256Y-61508284D01*
X91128957Y-61692270D01*
X91136175Y-61812521D01*
X91190050Y-61905835D01*
X91253785Y-61962352D01*
X91391114Y-62038588D01*
X91501505Y-62068168D01*
X91658553Y-62070809D01*
X91742008Y-62053732D01*
X91835322Y-61999857D01*
X91901698Y-61899325D01*
X91950997Y-61715339D01*
X90990921Y-62207430D02*
X90862743Y-62685794D01*
X91226139Y-62507092D01*
X91196560Y-62617483D01*
X91213638Y-62700937D01*
X91240575Y-62747594D01*
X91304310Y-62804111D01*
X91488295Y-62853410D01*
X91571750Y-62836332D01*
X91618407Y-62809395D01*
X91674923Y-62745660D01*
X91734082Y-62524877D01*
X91717004Y-62441423D01*
X91690067Y-62394766D01*
X90857460Y-62999891D02*
X90810803Y-63026828D01*
X90754286Y-63090563D01*
X90704987Y-63274549D01*
X90722065Y-63358003D01*
X90749002Y-63404660D01*
X90812737Y-63461176D01*
X90886331Y-63480896D01*
X91006582Y-63473678D01*
X91566466Y-63150429D01*
X91438289Y-63628792D01*
G04 #@! TO.C,D33*
X100546232Y-62812170D02*
X99853411Y-62412170D01*
X99758173Y-62577127D01*
X99734022Y-62695149D01*
X99761909Y-62799227D01*
X99808845Y-62870314D01*
X99921763Y-62979496D01*
X100020737Y-63036639D01*
X100171750Y-63079838D01*
X100256781Y-63084942D01*
X100360859Y-63057054D01*
X100450993Y-62977127D01*
X100546232Y-62812170D01*
X99491506Y-63039007D02*
X99243887Y-63467896D01*
X99641152Y-63389337D01*
X99584009Y-63488311D01*
X99578906Y-63573342D01*
X99592849Y-63625381D01*
X99639785Y-63696468D01*
X99804742Y-63791706D01*
X99889772Y-63796810D01*
X99941811Y-63782866D01*
X100012898Y-63735930D01*
X100127184Y-63537982D01*
X100132288Y-63452951D01*
X100118344Y-63400912D01*
X99110554Y-63698836D02*
X98862935Y-64127725D01*
X99260200Y-64049166D01*
X99203057Y-64148140D01*
X99197953Y-64233171D01*
X99211897Y-64285210D01*
X99258832Y-64356297D01*
X99423790Y-64451535D01*
X99508820Y-64456638D01*
X99560859Y-64442695D01*
X99631946Y-64395759D01*
X99746232Y-64197811D01*
X99751335Y-64112780D01*
X99737391Y-64060741D01*
G04 #@! TO.C,D34*
X111191428Y-34086904D02*
X111191428Y-33286904D01*
X111000952Y-33286904D01*
X110886666Y-33325000D01*
X110810476Y-33401190D01*
X110772380Y-33477380D01*
X110734285Y-33629761D01*
X110734285Y-33744047D01*
X110772380Y-33896428D01*
X110810476Y-33972619D01*
X110886666Y-34048809D01*
X111000952Y-34086904D01*
X111191428Y-34086904D01*
X110467619Y-33286904D02*
X109972380Y-33286904D01*
X110239047Y-33591666D01*
X110124761Y-33591666D01*
X110048571Y-33629761D01*
X110010476Y-33667857D01*
X109972380Y-33744047D01*
X109972380Y-33934523D01*
X110010476Y-34010714D01*
X110048571Y-34048809D01*
X110124761Y-34086904D01*
X110353333Y-34086904D01*
X110429523Y-34048809D01*
X110467619Y-34010714D01*
X109286666Y-33553571D02*
X109286666Y-34086904D01*
X109477142Y-33248809D02*
X109667619Y-33820238D01*
X109172380Y-33820238D01*
G04 #@! TO.C,D35*
X115271428Y-15105654D02*
X115271428Y-14305654D01*
X115080952Y-14305654D01*
X114966666Y-14343750D01*
X114890476Y-14419940D01*
X114852380Y-14496130D01*
X114814285Y-14648511D01*
X114814285Y-14762797D01*
X114852380Y-14915178D01*
X114890476Y-14991369D01*
X114966666Y-15067559D01*
X115080952Y-15105654D01*
X115271428Y-15105654D01*
X114547619Y-14305654D02*
X114052380Y-14305654D01*
X114319047Y-14610416D01*
X114204761Y-14610416D01*
X114128571Y-14648511D01*
X114090476Y-14686607D01*
X114052380Y-14762797D01*
X114052380Y-14953273D01*
X114090476Y-15029464D01*
X114128571Y-15067559D01*
X114204761Y-15105654D01*
X114433333Y-15105654D01*
X114509523Y-15067559D01*
X114547619Y-15029464D01*
X113328571Y-14305654D02*
X113709523Y-14305654D01*
X113747619Y-14686607D01*
X113709523Y-14648511D01*
X113633333Y-14610416D01*
X113442857Y-14610416D01*
X113366666Y-14648511D01*
X113328571Y-14686607D01*
X113290476Y-14762797D01*
X113290476Y-14953273D01*
X113328571Y-15029464D01*
X113366666Y-15067559D01*
X113442857Y-15105654D01*
X113633333Y-15105654D01*
X113709523Y-15067559D01*
X113747619Y-15029464D01*
G04 #@! TO.C,K00*
D13*
X1850571Y-5261428D02*
X1850571Y-3737428D01*
X979714Y-5261428D02*
X1632857Y-4390571D01*
X979714Y-3737428D02*
X1850571Y-4608285D01*
X36285Y-3737428D02*
X-108857Y-3737428D01*
X-254000Y-3810000D01*
X-326571Y-3882571D01*
X-399142Y-4027714D01*
X-471714Y-4318000D01*
X-471714Y-4680857D01*
X-399142Y-4971142D01*
X-326571Y-5116285D01*
X-254000Y-5188857D01*
X-108857Y-5261428D01*
X36285Y-5261428D01*
X181428Y-5188857D01*
X253999Y-5116285D01*
X326571Y-4971142D01*
X399142Y-4680857D01*
X399142Y-4318000D01*
X326571Y-4027714D01*
X253999Y-3882571D01*
X181428Y-3810000D01*
X36285Y-3737428D01*
X-1415142Y-3737428D02*
X-1560285Y-3737428D01*
X-1705428Y-3810000D01*
X-1778000Y-3882571D01*
X-1850571Y-4027714D01*
X-1923142Y-4318000D01*
X-1923142Y-4680857D01*
X-1850571Y-4971142D01*
X-1778000Y-5116285D01*
X-1705428Y-5188857D01*
X-1560285Y-5261428D01*
X-1415142Y-5261428D01*
X-1270000Y-5188857D01*
X-1197428Y-5116285D01*
X-1124857Y-4971142D01*
X-1052285Y-4680857D01*
X-1052285Y-4318000D01*
X-1124857Y-4027714D01*
X-1197428Y-3882571D01*
X-1270000Y-3810000D01*
X-1415142Y-3737428D01*
G04 #@! TO.C,K01*
X20900571Y-5261428D02*
X20900571Y-3737428D01*
X20029714Y-5261428D02*
X20682857Y-4390571D01*
X20029714Y-3737428D02*
X20900571Y-4608285D01*
X19086285Y-3737428D02*
X18941142Y-3737428D01*
X18796000Y-3810000D01*
X18723428Y-3882571D01*
X18650857Y-4027714D01*
X18578285Y-4318000D01*
X18578285Y-4680857D01*
X18650857Y-4971142D01*
X18723428Y-5116285D01*
X18796000Y-5188857D01*
X18941142Y-5261428D01*
X19086285Y-5261428D01*
X19231428Y-5188857D01*
X19304000Y-5116285D01*
X19376571Y-4971142D01*
X19449142Y-4680857D01*
X19449142Y-4318000D01*
X19376571Y-4027714D01*
X19304000Y-3882571D01*
X19231428Y-3810000D01*
X19086285Y-3737428D01*
X17126857Y-5261428D02*
X17997714Y-5261428D01*
X17562285Y-5261428D02*
X17562285Y-3737428D01*
X17707428Y-3955142D01*
X17852571Y-4100285D01*
X17997714Y-4172857D01*
G04 #@! TO.C,K02*
X39950571Y-498928D02*
X39950571Y1025071D01*
X39079714Y-498928D02*
X39732857Y371928D01*
X39079714Y1025071D02*
X39950571Y154214D01*
X38136285Y1025071D02*
X37991142Y1025071D01*
X37846000Y952500D01*
X37773428Y879928D01*
X37700857Y734785D01*
X37628285Y444500D01*
X37628285Y81642D01*
X37700857Y-208642D01*
X37773428Y-353785D01*
X37846000Y-426357D01*
X37991142Y-498928D01*
X38136285Y-498928D01*
X38281428Y-426357D01*
X38354000Y-353785D01*
X38426571Y-208642D01*
X38499142Y81642D01*
X38499142Y444500D01*
X38426571Y734785D01*
X38354000Y879928D01*
X38281428Y952500D01*
X38136285Y1025071D01*
X37047714Y879928D02*
X36975142Y952500D01*
X36830000Y1025071D01*
X36467142Y1025071D01*
X36322000Y952500D01*
X36249428Y879928D01*
X36176857Y734785D01*
X36176857Y589642D01*
X36249428Y371928D01*
X37120285Y-498928D01*
X36176857Y-498928D01*
G04 #@! TO.C,K03*
X59000571Y1882321D02*
X59000571Y3406321D01*
X58129714Y1882321D02*
X58782857Y2753178D01*
X58129714Y3406321D02*
X59000571Y2535464D01*
X57186285Y3406321D02*
X57041142Y3406321D01*
X56896000Y3333750D01*
X56823428Y3261178D01*
X56750857Y3116035D01*
X56678285Y2825750D01*
X56678285Y2462892D01*
X56750857Y2172607D01*
X56823428Y2027464D01*
X56896000Y1954892D01*
X57041142Y1882321D01*
X57186285Y1882321D01*
X57331428Y1954892D01*
X57404000Y2027464D01*
X57476571Y2172607D01*
X57549142Y2462892D01*
X57549142Y2825750D01*
X57476571Y3116035D01*
X57404000Y3261178D01*
X57331428Y3333750D01*
X57186285Y3406321D01*
X56170285Y3406321D02*
X55226857Y3406321D01*
X55734857Y2825750D01*
X55517142Y2825750D01*
X55372000Y2753178D01*
X55299428Y2680607D01*
X55226857Y2535464D01*
X55226857Y2172607D01*
X55299428Y2027464D01*
X55372000Y1954892D01*
X55517142Y1882321D01*
X55952571Y1882321D01*
X56097714Y1954892D01*
X56170285Y2027464D01*
G04 #@! TO.C,K04*
X78050571Y-498928D02*
X78050571Y1025071D01*
X77179714Y-498928D02*
X77832857Y371928D01*
X77179714Y1025071D02*
X78050571Y154214D01*
X76236285Y1025071D02*
X76091142Y1025071D01*
X75946000Y952500D01*
X75873428Y879928D01*
X75800857Y734785D01*
X75728285Y444500D01*
X75728285Y81642D01*
X75800857Y-208642D01*
X75873428Y-353785D01*
X75946000Y-426357D01*
X76091142Y-498928D01*
X76236285Y-498928D01*
X76381428Y-426357D01*
X76454000Y-353785D01*
X76526571Y-208642D01*
X76599142Y81642D01*
X76599142Y444500D01*
X76526571Y734785D01*
X76454000Y879928D01*
X76381428Y952500D01*
X76236285Y1025071D01*
X74422000Y517071D02*
X74422000Y-498928D01*
X74784857Y1097642D02*
X75147714Y9071D01*
X74204285Y9071D01*
G04 #@! TO.C,K05*
X97100571Y-2880178D02*
X97100571Y-1356178D01*
X96229714Y-2880178D02*
X96882857Y-2009321D01*
X96229714Y-1356178D02*
X97100571Y-2227035D01*
X95286285Y-1356178D02*
X95141142Y-1356178D01*
X94996000Y-1428750D01*
X94923428Y-1501321D01*
X94850857Y-1646464D01*
X94778285Y-1936750D01*
X94778285Y-2299607D01*
X94850857Y-2589892D01*
X94923428Y-2735035D01*
X94996000Y-2807607D01*
X95141142Y-2880178D01*
X95286285Y-2880178D01*
X95431428Y-2807607D01*
X95504000Y-2735035D01*
X95576571Y-2589892D01*
X95649142Y-2299607D01*
X95649142Y-1936750D01*
X95576571Y-1646464D01*
X95504000Y-1501321D01*
X95431428Y-1428750D01*
X95286285Y-1356178D01*
X93399428Y-1356178D02*
X94125142Y-1356178D01*
X94197714Y-2081892D01*
X94125142Y-2009321D01*
X93980000Y-1936750D01*
X93617142Y-1936750D01*
X93472000Y-2009321D01*
X93399428Y-2081892D01*
X93326857Y-2227035D01*
X93326857Y-2589892D01*
X93399428Y-2735035D01*
X93472000Y-2807607D01*
X93617142Y-2880178D01*
X93980000Y-2880178D01*
X94125142Y-2807607D01*
X94197714Y-2735035D01*
G04 #@! TO.C,K10*
X1850571Y-24311428D02*
X1850571Y-22787428D01*
X979714Y-24311428D02*
X1632857Y-23440571D01*
X979714Y-22787428D02*
X1850571Y-23658285D01*
X-471714Y-24311428D02*
X399142Y-24311428D01*
X-36285Y-24311428D02*
X-36285Y-22787428D01*
X108857Y-23005142D01*
X253999Y-23150285D01*
X399142Y-23222857D01*
X-1415142Y-22787428D02*
X-1560285Y-22787428D01*
X-1705428Y-22860000D01*
X-1778000Y-22932571D01*
X-1850571Y-23077714D01*
X-1923142Y-23368000D01*
X-1923142Y-23730857D01*
X-1850571Y-24021142D01*
X-1778000Y-24166285D01*
X-1705428Y-24238857D01*
X-1560285Y-24311428D01*
X-1415142Y-24311428D01*
X-1270000Y-24238857D01*
X-1197428Y-24166285D01*
X-1124857Y-24021142D01*
X-1052285Y-23730857D01*
X-1052285Y-23368000D01*
X-1124857Y-23077714D01*
X-1197428Y-22932571D01*
X-1270000Y-22860000D01*
X-1415142Y-22787428D01*
G04 #@! TO.C,K11*
X20900571Y-24311428D02*
X20900571Y-22787428D01*
X20029714Y-24311428D02*
X20682857Y-23440571D01*
X20029714Y-22787428D02*
X20900571Y-23658285D01*
X18578285Y-24311428D02*
X19449142Y-24311428D01*
X19013714Y-24311428D02*
X19013714Y-22787428D01*
X19158857Y-23005142D01*
X19304000Y-23150285D01*
X19449142Y-23222857D01*
X17126857Y-24311428D02*
X17997714Y-24311428D01*
X17562285Y-24311428D02*
X17562285Y-22787428D01*
X17707428Y-23005142D01*
X17852571Y-23150285D01*
X17997714Y-23222857D01*
G04 #@! TO.C,K12*
X39950571Y-19548928D02*
X39950571Y-18024928D01*
X39079714Y-19548928D02*
X39732857Y-18678071D01*
X39079714Y-18024928D02*
X39950571Y-18895785D01*
X37628285Y-19548928D02*
X38499142Y-19548928D01*
X38063714Y-19548928D02*
X38063714Y-18024928D01*
X38208857Y-18242642D01*
X38354000Y-18387785D01*
X38499142Y-18460357D01*
X37047714Y-18170071D02*
X36975142Y-18097500D01*
X36830000Y-18024928D01*
X36467142Y-18024928D01*
X36322000Y-18097500D01*
X36249428Y-18170071D01*
X36176857Y-18315214D01*
X36176857Y-18460357D01*
X36249428Y-18678071D01*
X37120285Y-19548928D01*
X36176857Y-19548928D01*
G04 #@! TO.C,K13*
X59000571Y-17167678D02*
X59000571Y-15643678D01*
X58129714Y-17167678D02*
X58782857Y-16296821D01*
X58129714Y-15643678D02*
X59000571Y-16514535D01*
X56678285Y-17167678D02*
X57549142Y-17167678D01*
X57113714Y-17167678D02*
X57113714Y-15643678D01*
X57258857Y-15861392D01*
X57404000Y-16006535D01*
X57549142Y-16079107D01*
X56170285Y-15643678D02*
X55226857Y-15643678D01*
X55734857Y-16224250D01*
X55517142Y-16224250D01*
X55372000Y-16296821D01*
X55299428Y-16369392D01*
X55226857Y-16514535D01*
X55226857Y-16877392D01*
X55299428Y-17022535D01*
X55372000Y-17095107D01*
X55517142Y-17167678D01*
X55952571Y-17167678D01*
X56097714Y-17095107D01*
X56170285Y-17022535D01*
G04 #@! TO.C,K14*
X78050571Y-19548928D02*
X78050571Y-18024928D01*
X77179714Y-19548928D02*
X77832857Y-18678071D01*
X77179714Y-18024928D02*
X78050571Y-18895785D01*
X75728285Y-19548928D02*
X76599142Y-19548928D01*
X76163714Y-19548928D02*
X76163714Y-18024928D01*
X76308857Y-18242642D01*
X76454000Y-18387785D01*
X76599142Y-18460357D01*
X74422000Y-18532928D02*
X74422000Y-19548928D01*
X74784857Y-17952357D02*
X75147714Y-19040928D01*
X74204285Y-19040928D01*
G04 #@! TO.C,K15*
X97100571Y-21930178D02*
X97100571Y-20406178D01*
X96229714Y-21930178D02*
X96882857Y-21059321D01*
X96229714Y-20406178D02*
X97100571Y-21277035D01*
X94778285Y-21930178D02*
X95649142Y-21930178D01*
X95213714Y-21930178D02*
X95213714Y-20406178D01*
X95358857Y-20623892D01*
X95504000Y-20769035D01*
X95649142Y-20841607D01*
X93399428Y-20406178D02*
X94125142Y-20406178D01*
X94197714Y-21131892D01*
X94125142Y-21059321D01*
X93980000Y-20986750D01*
X93617142Y-20986750D01*
X93472000Y-21059321D01*
X93399428Y-21131892D01*
X93326857Y-21277035D01*
X93326857Y-21639892D01*
X93399428Y-21785035D01*
X93472000Y-21857607D01*
X93617142Y-21930178D01*
X93980000Y-21930178D01*
X94125142Y-21857607D01*
X94197714Y-21785035D01*
G04 #@! TO.C,K20*
X1850571Y-43361428D02*
X1850571Y-41837428D01*
X979714Y-43361428D02*
X1632857Y-42490571D01*
X979714Y-41837428D02*
X1850571Y-42708285D01*
X399142Y-41982571D02*
X326571Y-41910000D01*
X181428Y-41837428D01*
X-181428Y-41837428D01*
X-326571Y-41910000D01*
X-399142Y-41982571D01*
X-471714Y-42127714D01*
X-471714Y-42272857D01*
X-399142Y-42490571D01*
X471714Y-43361428D01*
X-471714Y-43361428D01*
X-1415142Y-41837428D02*
X-1560285Y-41837428D01*
X-1705428Y-41910000D01*
X-1778000Y-41982571D01*
X-1850571Y-42127714D01*
X-1923142Y-42418000D01*
X-1923142Y-42780857D01*
X-1850571Y-43071142D01*
X-1778000Y-43216285D01*
X-1705428Y-43288857D01*
X-1560285Y-43361428D01*
X-1415142Y-43361428D01*
X-1270000Y-43288857D01*
X-1197428Y-43216285D01*
X-1124857Y-43071142D01*
X-1052285Y-42780857D01*
X-1052285Y-42418000D01*
X-1124857Y-42127714D01*
X-1197428Y-41982571D01*
X-1270000Y-41910000D01*
X-1415142Y-41837428D01*
G04 #@! TO.C,K21*
X20900571Y-43361428D02*
X20900571Y-41837428D01*
X20029714Y-43361428D02*
X20682857Y-42490571D01*
X20029714Y-41837428D02*
X20900571Y-42708285D01*
X19449142Y-41982571D02*
X19376571Y-41910000D01*
X19231428Y-41837428D01*
X18868571Y-41837428D01*
X18723428Y-41910000D01*
X18650857Y-41982571D01*
X18578285Y-42127714D01*
X18578285Y-42272857D01*
X18650857Y-42490571D01*
X19521714Y-43361428D01*
X18578285Y-43361428D01*
X17126857Y-43361428D02*
X17997714Y-43361428D01*
X17562285Y-43361428D02*
X17562285Y-41837428D01*
X17707428Y-42055142D01*
X17852571Y-42200285D01*
X17997714Y-42272857D01*
G04 #@! TO.C,K22*
X39950571Y-38598928D02*
X39950571Y-37074928D01*
X39079714Y-38598928D02*
X39732857Y-37728071D01*
X39079714Y-37074928D02*
X39950571Y-37945785D01*
X38499142Y-37220071D02*
X38426571Y-37147500D01*
X38281428Y-37074928D01*
X37918571Y-37074928D01*
X37773428Y-37147500D01*
X37700857Y-37220071D01*
X37628285Y-37365214D01*
X37628285Y-37510357D01*
X37700857Y-37728071D01*
X38571714Y-38598928D01*
X37628285Y-38598928D01*
X37047714Y-37220071D02*
X36975142Y-37147500D01*
X36830000Y-37074928D01*
X36467142Y-37074928D01*
X36322000Y-37147500D01*
X36249428Y-37220071D01*
X36176857Y-37365214D01*
X36176857Y-37510357D01*
X36249428Y-37728071D01*
X37120285Y-38598928D01*
X36176857Y-38598928D01*
G04 #@! TO.C,K23*
X59000571Y-36217678D02*
X59000571Y-34693678D01*
X58129714Y-36217678D02*
X58782857Y-35346821D01*
X58129714Y-34693678D02*
X59000571Y-35564535D01*
X57549142Y-34838821D02*
X57476571Y-34766250D01*
X57331428Y-34693678D01*
X56968571Y-34693678D01*
X56823428Y-34766250D01*
X56750857Y-34838821D01*
X56678285Y-34983964D01*
X56678285Y-35129107D01*
X56750857Y-35346821D01*
X57621714Y-36217678D01*
X56678285Y-36217678D01*
X56170285Y-34693678D02*
X55226857Y-34693678D01*
X55734857Y-35274250D01*
X55517142Y-35274250D01*
X55372000Y-35346821D01*
X55299428Y-35419392D01*
X55226857Y-35564535D01*
X55226857Y-35927392D01*
X55299428Y-36072535D01*
X55372000Y-36145107D01*
X55517142Y-36217678D01*
X55952571Y-36217678D01*
X56097714Y-36145107D01*
X56170285Y-36072535D01*
G04 #@! TO.C,K24*
X78050571Y-38598928D02*
X78050571Y-37074928D01*
X77179714Y-38598928D02*
X77832857Y-37728071D01*
X77179714Y-37074928D02*
X78050571Y-37945785D01*
X76599142Y-37220071D02*
X76526571Y-37147500D01*
X76381428Y-37074928D01*
X76018571Y-37074928D01*
X75873428Y-37147500D01*
X75800857Y-37220071D01*
X75728285Y-37365214D01*
X75728285Y-37510357D01*
X75800857Y-37728071D01*
X76671714Y-38598928D01*
X75728285Y-38598928D01*
X74422000Y-37582928D02*
X74422000Y-38598928D01*
X74784857Y-37002357D02*
X75147714Y-38090928D01*
X74204285Y-38090928D01*
G04 #@! TO.C,K25*
X97100571Y-40980178D02*
X97100571Y-39456178D01*
X96229714Y-40980178D02*
X96882857Y-40109321D01*
X96229714Y-39456178D02*
X97100571Y-40327035D01*
X95649142Y-39601321D02*
X95576571Y-39528750D01*
X95431428Y-39456178D01*
X95068571Y-39456178D01*
X94923428Y-39528750D01*
X94850857Y-39601321D01*
X94778285Y-39746464D01*
X94778285Y-39891607D01*
X94850857Y-40109321D01*
X95721714Y-40980178D01*
X94778285Y-40980178D01*
X93399428Y-39456178D02*
X94125142Y-39456178D01*
X94197714Y-40181892D01*
X94125142Y-40109321D01*
X93980000Y-40036750D01*
X93617142Y-40036750D01*
X93472000Y-40109321D01*
X93399428Y-40181892D01*
X93326857Y-40327035D01*
X93326857Y-40689892D01*
X93399428Y-40835035D01*
X93472000Y-40907607D01*
X93617142Y-40980178D01*
X93980000Y-40980178D01*
X94125142Y-40907607D01*
X94197714Y-40835035D01*
G04 #@! TO.C,K30*
X44713071Y-62411428D02*
X44713071Y-60887428D01*
X43842214Y-62411428D02*
X44495357Y-61540571D01*
X43842214Y-60887428D02*
X44713071Y-61758285D01*
X43334214Y-60887428D02*
X42390785Y-60887428D01*
X42898785Y-61468000D01*
X42681071Y-61468000D01*
X42535928Y-61540571D01*
X42463357Y-61613142D01*
X42390785Y-61758285D01*
X42390785Y-62121142D01*
X42463357Y-62266285D01*
X42535928Y-62338857D01*
X42681071Y-62411428D01*
X43116500Y-62411428D01*
X43261642Y-62338857D01*
X43334214Y-62266285D01*
X41447357Y-60887428D02*
X41302214Y-60887428D01*
X41157071Y-60960000D01*
X41084500Y-61032571D01*
X41011928Y-61177714D01*
X40939357Y-61468000D01*
X40939357Y-61830857D01*
X41011928Y-62121142D01*
X41084500Y-62266285D01*
X41157071Y-62338857D01*
X41302214Y-62411428D01*
X41447357Y-62411428D01*
X41592500Y-62338857D01*
X41665071Y-62266285D01*
X41737642Y-62121142D01*
X41810214Y-61830857D01*
X41810214Y-61468000D01*
X41737642Y-61177714D01*
X41665071Y-61032571D01*
X41592500Y-60960000D01*
X41447357Y-60887428D01*
G04 #@! TO.C,K31*
X63763071Y-62411428D02*
X63763071Y-60887428D01*
X62892214Y-62411428D02*
X63545357Y-61540571D01*
X62892214Y-60887428D02*
X63763071Y-61758285D01*
X62384214Y-60887428D02*
X61440785Y-60887428D01*
X61948785Y-61468000D01*
X61731071Y-61468000D01*
X61585928Y-61540571D01*
X61513357Y-61613142D01*
X61440785Y-61758285D01*
X61440785Y-62121142D01*
X61513357Y-62266285D01*
X61585928Y-62338857D01*
X61731071Y-62411428D01*
X62166500Y-62411428D01*
X62311642Y-62338857D01*
X62384214Y-62266285D01*
X59989357Y-62411428D02*
X60860214Y-62411428D01*
X60424785Y-62411428D02*
X60424785Y-60887428D01*
X60569928Y-61105142D01*
X60715071Y-61250285D01*
X60860214Y-61322857D01*
G04 #@! TO.C,K33*
X105167727Y-72774184D02*
X105929727Y-71454361D01*
X104413543Y-72338755D02*
X105414610Y-71911142D01*
X105175543Y-71018933D02*
X105494299Y-72208546D01*
X104735602Y-70764933D02*
X103918569Y-70293218D01*
X104068224Y-71050008D01*
X103879678Y-70941151D01*
X103717695Y-70931428D01*
X103618560Y-70957991D01*
X103483140Y-71047403D01*
X103301712Y-71361646D01*
X103291989Y-71523629D01*
X103318552Y-71622764D01*
X103407963Y-71758184D01*
X103785056Y-71975898D01*
X103947039Y-71985621D01*
X104046173Y-71959058D01*
X103478628Y-70039218D02*
X102661595Y-69567504D01*
X102811250Y-70324294D01*
X102622704Y-70215436D01*
X102460721Y-70205714D01*
X102361586Y-70232277D01*
X102226166Y-70321688D01*
X102044738Y-70635932D01*
X102035015Y-70797915D01*
X102061578Y-70897049D01*
X102150989Y-71032470D01*
X102528082Y-71250184D01*
X102690065Y-71259907D01*
X102789199Y-71233344D01*
G04 #@! TO.C,K32*
X84559263Y-66027269D02*
X84953703Y-64555199D01*
X83718080Y-65801875D02*
X84574362Y-65129737D01*
X84112520Y-64329804D02*
X84728309Y-65396382D01*
X83621829Y-64198324D02*
X82710547Y-63954147D01*
X83050975Y-64646416D01*
X82840679Y-64590067D01*
X82681699Y-64622600D01*
X82592817Y-64673916D01*
X82485153Y-64795330D01*
X82391239Y-65145823D01*
X82423772Y-65304803D01*
X82475087Y-65393685D01*
X82596502Y-65501349D01*
X83017093Y-65614046D01*
X83176074Y-65581514D01*
X83264955Y-65530198D01*
X82112193Y-63944081D02*
X82060877Y-63855200D01*
X81939463Y-63747535D01*
X81588970Y-63653621D01*
X81429989Y-63686154D01*
X81341108Y-63737470D01*
X81233444Y-63858884D01*
X81195878Y-63999081D01*
X81209628Y-64228160D01*
X81825417Y-65294738D01*
X80914135Y-65050560D01*
G04 #@! TO.C,K34*
X116150571Y-31455178D02*
X116150571Y-29931178D01*
X115279714Y-31455178D02*
X115932857Y-30584321D01*
X115279714Y-29931178D02*
X116150571Y-30802035D01*
X114771714Y-29931178D02*
X113828285Y-29931178D01*
X114336285Y-30511750D01*
X114118571Y-30511750D01*
X113973428Y-30584321D01*
X113900857Y-30656892D01*
X113828285Y-30802035D01*
X113828285Y-31164892D01*
X113900857Y-31310035D01*
X113973428Y-31382607D01*
X114118571Y-31455178D01*
X114554000Y-31455178D01*
X114699142Y-31382607D01*
X114771714Y-31310035D01*
X112522000Y-30439178D02*
X112522000Y-31455178D01*
X112884857Y-29858607D02*
X113247714Y-30947178D01*
X112304285Y-30947178D01*
G04 #@! TO.C,K35*
X116150571Y-12405178D02*
X116150571Y-10881178D01*
X115279714Y-12405178D02*
X115932857Y-11534321D01*
X115279714Y-10881178D02*
X116150571Y-11752035D01*
X114771714Y-10881178D02*
X113828285Y-10881178D01*
X114336285Y-11461750D01*
X114118571Y-11461750D01*
X113973428Y-11534321D01*
X113900857Y-11606892D01*
X113828285Y-11752035D01*
X113828285Y-12114892D01*
X113900857Y-12260035D01*
X113973428Y-12332607D01*
X114118571Y-12405178D01*
X114554000Y-12405178D01*
X114699142Y-12332607D01*
X114771714Y-12260035D01*
X112449428Y-10881178D02*
X113175142Y-10881178D01*
X113247714Y-11606892D01*
X113175142Y-11534321D01*
X113030000Y-11461750D01*
X112667142Y-11461750D01*
X112522000Y-11534321D01*
X112449428Y-11606892D01*
X112376857Y-11752035D01*
X112376857Y-12114892D01*
X112449428Y-12260035D01*
X112522000Y-12332607D01*
X112667142Y-12405178D01*
X113030000Y-12405178D01*
X113175142Y-12332607D01*
X113247714Y-12260035D01*
G04 #@! TD*
M02*
